<svg width="25" height="25" viewBox="0 0 25 25" fill="none" xmlns="http://www.w3.org/2000/svg">
<path d="M12.6667 24.3333C19.11 24.3333 24.3333 19.11 24.3333 12.6667C24.3333 6.22334 19.11 1 12.6667 1C6.22334 1 1 6.22334 1 12.6667C1 19.11 6.22334 24.3333 12.6667 24.3333Z" stroke="black" stroke-linecap="round" stroke-linejoin="round"/>
<path d="M9.6665 9.00652C9.94079 8.2268 10.4822 7.56932 11.1948 7.15051C11.9074 6.73171 12.7452 6.57862 13.5599 6.71835C14.3745 6.85809 15.1135 7.28164 15.6458 7.91397C16.1781 8.54631 16.4694 9.34663 16.4682 10.1732C16.4682 12.5065 12.9682 13.6732 12.9682 13.6732" stroke="black" stroke-linecap="round" stroke-linejoin="round"/>
<path d="M12.6665 18.5H12.6765" stroke="black" stroke-linecap="round" stroke-linejoin="round"/>
</svg>