<svg width="22" height="25" viewBox="0 0 22 25" fill="none" xmlns="http://www.w3.org/2000/svg">
<rect x="0.5" y="8.08594" width="20.4079" height="15.4189" rx="0.5" stroke="black"/>
<path fill-rule="evenodd" clip-rule="evenodd" d="M16.8936 8.39857C16.6174 8.39857 16.3936 8.17471 16.3936 7.89857V5C16.3936 2.79086 14.6027 1 12.3936 1L9.01367 1C6.80453 1 5.01367 2.79086 5.01367 5L5.01367 7.89857C5.01367 8.17471 4.78981 8.39857 4.51367 8.39857C4.23753 8.39857 4.01367 8.17471 4.01367 7.89857L4.01367 5C4.01367 2.23857 6.25225 0 9.01367 0H12.3936C15.155 0 17.3936 2.23858 17.3936 5V7.89857C17.3936 8.17471 17.1697 8.39857 16.8936 8.39857ZM12.5125 20.3985H8.89474C8.93427 20.3994 8.97392 20.3999 9.01367 20.3999H12.3936C12.4333 20.3999 12.473 20.3994 12.5125 20.3985Z" fill="black"/>
</svg>